<?xml version="1.0" encoding="utf-8"?>
<!-- Generator: Adobe Illustrator 24.3.0, SVG Export Plug-In . SVG Version: 6.00 Build 0)  -->
<svg version="1.1" id="Layer_1" xmlns="http://www.w3.org/2000/svg" xmlns:xlink="http://www.w3.org/1999/xlink" x="0px" y="0px"
	 viewBox="0 0 64 64" style="enable-background:new 0 0 64 64;" xml:space="preserve">
<style type="text/css">
	.st0{fill:#B8996E;}
</style>
<g>
	<path class="st0" d="M13.1,36.8V56c0,0.5,0.4,0.9,0.9,0.9h20.6V39.5h9.7v17.4h5.8c0.5,0,0.9-0.4,0.9-0.9V36.8L32,17.9L13.1,36.8z
		 M28.5,47.6h-8.8v-8.1h8.8V47.6z"/>
	<path class="st0" d="M54.8,29.9L32,7.1L21.3,17.8v-4.7c0-1.1-0.9-2-2-2s-2,0.9-2,2v8.7l-8,8c-1,1-1,2.6,0,3.5
		c0.5,0.5,1.1,0.7,1.8,0.7s1.3-0.2,1.8-0.7L32,14.2l19.2,19.2c1,1,2.6,1,3.5,0C55.7,32.4,55.7,30.8,54.8,29.9z"/>
</g>
</svg>
