<?xml version="1.0" encoding="utf-8"?>
<!-- Generator: Adobe Illustrator 24.3.0, SVG Export Plug-In . SVG Version: 6.00 Build 0)  -->
<svg version="1.1" id="Layer_1" xmlns="http://www.w3.org/2000/svg" xmlns:xlink="http://www.w3.org/1999/xlink" x="0px" y="0px"
	 viewBox="0 0 24 24" style="enable-background:new 0 0 24 24;" xml:space="preserve">
<style type="text/css">
	.st0{fill-rule:evenodd;clip-rule:evenodd;fill:#B8996E;}
	.st1{fill:#B8996E;}
</style>
<path class="st0" d="M3,5c0-1.7,1.3-3,3-3c1.7,0,3,1.3,3,3S7.7,8,6,8C4.3,8,3,6.7,3,5z M6,4C5.4,4,5,4.4,5,5s0.4,1,1,1
	c0.6,0,1-0.4,1-1S6.6,4,6,4z"/>
<path class="st0" d="M15,5c0-1.7,1.3-3,3-3c1.7,0,3,1.3,3,3s-1.3,3-3,3C16.3,8,15,6.7,15,5z M18,4c-0.6,0-1,0.4-1,1s0.4,1,1,1
	s1-0.4,1-1S18.6,4,18,4z"/>
<path class="st0" d="M8,12c0-2.2,1.8-4,4-4c2.2,0,4,1.8,4,4c0,2.2-1.8,4-4,4C9.8,16,8,14.2,8,12z M12,10c-1.1,0-2,0.9-2,2s0.9,2,2,2
	c1.1,0,2-0.9,2-2S13.1,10,12,10z"/>
<path class="st1" d="M1.2,11.4C2.3,9.9,4,9,6,9h1v2H6c-1.3,0-2.5,0.6-3.2,1.6l-0.6,0.8l-1.6-1.2L1.2,11.4z"/>
<path class="st1" d="M17,9h1c2,0,3.7,0.9,4.8,2.4l0.6,0.8l-1.6,1.2l-0.6-0.8c-0.7-1-1.9-1.6-3.2-1.6h-1V9z"/>
<path class="st1" d="M5.4,20.4C6.9,18.4,9.3,17,12,17c2.7,0,5.1,1.4,6.6,3.4l0.6,0.8l-1.6,1.1l-0.6-0.8C15.8,20,14,19,12,19
	c-2,0-3.8,1-4.9,2.6l-0.6,0.8l-1.6-1.1L5.4,20.4z"/>
</svg>
