<?xml version="1.0" encoding="utf-8"?>
<!-- Generator: Adobe Illustrator 24.3.0, SVG Export Plug-In . SVG Version: 6.00 Build 0)  -->
<svg version="1.1" id="Layer_1" xmlns="http://www.w3.org/2000/svg" xmlns:xlink="http://www.w3.org/1999/xlink" x="0px" y="0px"
	 viewBox="0 0 128 128" style="enable-background:new 0 0 128 128;" xml:space="preserve">
<style type="text/css">
	.st0{fill:#B8996E;}
</style>
<g>
	<polygon class="st0" points="115,119 101,119 101,1 27,1 27,79 13,79 13,87 35,87 35,9 93,9 93,119 35,119 35,96 27,96 27,119 
		13,119 13,127 115,127 	"/>
	<rect x="48" y="27" class="st0" width="8" height="8"/>
	<rect x="72" y="27" class="st0" width="8" height="8"/>
	<rect x="48" y="57" class="st0" width="8" height="8"/>
	<rect x="72" y="57" class="st0" width="8" height="8"/>
	<rect x="48" y="87" class="st0" width="8" height="8"/>
	<rect x="72" y="87" class="st0" width="8" height="8"/>
</g>
</svg>
