<?xml version="1.0" encoding="utf-8"?>
<!-- Generator: Adobe Illustrator 24.3.0, SVG Export Plug-In . SVG Version: 6.00 Build 0)  -->
<svg version="1.1" id="Layer_1" xmlns="http://www.w3.org/2000/svg" xmlns:xlink="http://www.w3.org/1999/xlink" x="0px" y="0px"
	 viewBox="0 0 48 48" style="enable-background:new 0 0 48 48;" xml:space="preserve">
<style type="text/css">
	.st0{fill:#B8996E;}
</style>
<g id="Layer_1_1_">
</g>
<g id="Layer_3">
	<g>
		<path class="st0" d="M21,35.4c0-0.9-0.8-1.7-1.7-1.7h-0.8c-0.4,0-0.7-0.3-0.7-0.8c0-0.4,0.3-0.7,0.7-0.7H20v0.3
			c0,0.3,0.2,0.5,0.5,0.5s0.5-0.2,0.5-0.5v-0.8c0-0.3-0.2-0.5-0.5-0.5h-1.1v-0.8c0-0.3-0.2-0.5-0.5-0.5s-0.5,0.2-0.5,0.5v0.8
			c-0.9,0.1-1.6,0.8-1.6,1.8c0,0.9,0.8,1.7,1.7,1.7h0.8c0.4,0,0.7,0.3,0.7,0.7s-0.3,0.7-0.7,0.7h-1.5v-0.3c0-0.3-0.2-0.5-0.5-0.5
			s-0.5,0.2-0.5,0.5v0.8c0,0.3,0.2,0.5,0.5,0.5h1.1v0.8c0,0.3,0.2,0.5,0.5,0.5s0.5-0.2,0.5-0.5V37C20.3,37,21,36.3,21,35.4z"/>
		<path class="st0" d="M39,26.2c0-1.7-1-3.1-2.3-3.8c1.4-0.7,2.3-2.1,2.3-3.8c0-2.4-1.9-4.3-4.3-4.3h-2.7c1.2-0.8,1.9-2.1,1.9-3.6
			c0-2.4-1.9-4.3-4.3-4.3H18.8v1h10.9c1.8,0,3.3,1.5,3.3,3.3s-1.5,3.3-3.3,3.3H13.3c-1.8,0-3.3-1.5-3.3-3.3s1.5-3.3,3.3-3.3h2.6v-1
			h-2.6C10.9,6.5,9,8.4,9,10.8s1.9,4.3,4.3,4.3h2.7c-1.2,0.8-1.9,2.1-1.9,3.6c0,1.7,0.9,3.1,2.3,3.8c-1.4,0.7-2.3,2.1-2.3,3.8
			c0,0.7,0.2,1.3,0.5,1.9c-1.8,1.3-3.1,3.5-3.1,6c0,3.4,2.4,6.5,5.8,7.2c0.3,0.1,0.5-0.1,0.6-0.4c0.1-0.3-0.1-0.5-0.4-0.6
			c-2.9-0.6-5-3.3-5-6.2c0-3.5,2.9-6.4,6.4-6.4s6.4,2.9,6.4,6.4c0,3-2.1,5.6-5,6.2c-0.3,0.1-0.4,0.3-0.4,0.6
			c0.1,0.2,0.3,0.4,0.5,0.4c0,0,0.1,0,0.1,0c1.9-0.4,3.6-1.6,4.6-3.2h9.7c2.4,0,4.3-1.9,4.3-4.3c0-1.7-1-3.1-2.3-3.8
			C38,29.3,39,27.9,39,26.2z M15,18.7c0-1.8,1.5-3.3,3.3-3.3h16.4c1.8,0,3.3,1.5,3.3,3.3S36.5,22,34.7,22H18.3
			C16.5,22,15,20.5,15,18.7z M38,33.8c0,1.8-1.5,3.3-3.3,3.3h-9.2c0.4-0.9,0.6-1.9,0.6-3c0-1.3-0.3-2.5-0.9-3.6h9.5
			C36.5,30.5,38,32,38,33.8z M34.7,29.5H24.5c-1.4-1.7-3.4-2.8-5.8-2.8c-1.3,0-2.4,0.3-3.5,0.9c-0.2-0.4-0.3-0.9-0.3-1.4
			c0-1.8,1.5-3.3,3.3-3.3h16.4c1.8,0,3.3,1.5,3.3,3.3S36.5,29.5,34.7,29.5z"/>
	</g>
</g>
<g id="Layer_2_1_">
</g>
</svg>
