<?xml version="1.0" encoding="utf-8"?>
<!-- Generator: Adobe Illustrator 24.3.0, SVG Export Plug-In . SVG Version: 6.00 Build 0)  -->
<svg version="1.1" id="Layer_1" xmlns="http://www.w3.org/2000/svg" xmlns:xlink="http://www.w3.org/1999/xlink" x="0px" y="0px"
	 viewBox="0 0 48 48" style="enable-background:new 0 0 48 48;" xml:space="preserve">
<style type="text/css">
	.st0{fill:#B8996E;}
</style>
<g id="Expanded">
	<g>
		<g>
			<path class="st0" d="M42,48H28V35h-8v13H6V27c0-0.6,0.4-1,1-1s1,0.4,1,1v19h10V33h12v13h10V28c0-0.6,0.4-1,1-1s1,0.4,1,1V48z"/>
		</g>
		<g>
			<path class="st0" d="M47,27c-0.2,0-0.5-0.1-0.7-0.3L24,5.4L1.7,26.7c-0.4,0.4-1,0.4-1.4,0s-0.4-1,0-1.4L24,2.6l23.7,22.7
				c0.4,0.4,0.4,1,0,1.4C47.5,26.9,47.3,27,47,27z"/>
		</g>
		<g>
			<path class="st0" d="M39,15c-0.6,0-1-0.4-1-1V8h-6c-0.6,0-1-0.4-1-1s0.4-1,1-1h8v8C40,14.6,39.6,15,39,15z"/>
		</g>
	</g>
</g>
</svg>
