<?xml version="1.0" encoding="utf-8"?>
<!-- Generator: Adobe Illustrator 24.3.0, SVG Export Plug-In . SVG Version: 6.00 Build 0)  -->
<svg version="1.1" id="Layer_1" xmlns="http://www.w3.org/2000/svg" xmlns:xlink="http://www.w3.org/1999/xlink" x="0px" y="0px"
	 viewBox="0 0 512 512" style="enable-background:new 0 0 512 512;" xml:space="preserve">
<style type="text/css">
	.st0{fill:#B8996E;}
</style>
<path class="st0" d="M208.7,242.7h94.6c3,0,5.5-2.5,5.5-5.5l0,0V200c0-3-2.5-5.5-5.5-5.5l0,0h-94.6c-3,0-5.5,2.5-5.5,5.5v37.2
	C203.2,240.2,205.7,242.7,208.7,242.7z M214.2,205.4h83.6v26.3h-83.6L214.2,205.4z"/>
<path class="st0" d="M303.3,316.2c3,0,5.5-2.5,5.5-5.5c0,0,0,0,0,0v-37.2c0-3-2.5-5.5-5.5-5.5c0,0,0,0,0,0h-94.6
	c-3,0-5.5,2.5-5.5,5.5l0,0v37.2c0,3,2.5,5.5,5.5,5.5l0,0H303.3z M214.2,278.9h83.6v26.3h-83.6L214.2,278.9z"/>
<path class="st0" d="M470.7,440.3h-16.2V195.5c0-3-2.4-5.5-5.5-5.5l0,0H341.7v-31.8c0-3-2.5-5.5-5.5-5.5l0,0h-74.7v-14.2
	c2.9,0.7,5.8,1.1,8.8,1.1c9.4,0,17.5-3.6,24.9-6.8c10.7-4.7,20-8.8,32.5-3.1c2.8,1.2,6,0,7.2-2.8c0.3-0.7,0.5-1.5,0.5-2.2V69.4
	c0-2.2-1.3-4.1-3.2-5c-17-7.6-30-1.9-41.4,3.1c-10.7,4.7-20,8.8-32.5,3.1c-2.8-1.2-6,0-7.2,2.8c-0.3,0.7-0.5,1.5-0.5,2.2v77.1h-74.7
	c-3,0-5.5,2.5-5.5,5.5v31.8H63c-3,0-5.5,2.4-5.5,5.5l0,0v244.8H41.3c-3-0.1-5.6,2.2-5.7,5.2c-0.1,3,2.2,5.6,5.2,5.7
	c0.2,0,0.3,0,0.5,0h429.3c3,0.1,5.6-2.2,5.7-5.2c0.1-3-2.2-5.6-5.2-5.7C471,440.3,470.8,440.3,470.7,440.3z M261.5,83.4
	c13.3,3.2,24.1-1.5,33.7-5.8s18.3-8,29.3-4.4V117c-13.3-3.2-24.1,1.5-33.7,5.8s-18.3,8-29.3,4.4V83.4z M341.7,383v-56.9h45.4V383
	H341.7z M443.5,315.2h-45.4v-56.9h45.4V315.2z M387.1,315.2h-45.4v-56.9h45.4L387.1,315.2z M398.1,326.1h45.4V383h-45.4V326.1z
	 M443.5,247.3h-45.4V201h45.4V247.3z M387.1,201v46.3h-45.4V201H387.1z M68.5,383v-56.9h45.4V383H68.5z M170.3,315.1h-45.4v-56.9
	h45.4V315.1z M113.9,315.1H68.5v-56.9h45.4V315.1z M124.9,326.1h45.4V383h-45.5L124.9,326.1z M170.4,247.3h-45.5V201h45.4
	L170.4,247.3z M113.9,201v46.3H68.5V201H113.9z M68.5,394h101.8v46.3H68.5V394z M181.3,195.5v-31.8h149.4v276.5h-30.6v-88.6
	c0-3-2.4-5.5-5.5-5.5c0,0,0,0,0,0h-77.3c-3,0-5.5,2.4-5.5,5.5c0,0,0,0,0,0v88.6h-30.6V195.5z M289.2,373h-66.4v-15.8h66.4V373z
	 M222.8,440.3V384h66.4v56.3L222.8,440.3z M341.7,440.3V394h101.8v46.3L341.7,440.3z"/>
</svg>
