<?xml version="1.0" encoding="utf-8"?>
<!-- Generator: Adobe Illustrator 24.3.0, SVG Export Plug-In . SVG Version: 6.00 Build 0)  -->
<svg version="1.1" id="Layer_1" xmlns="http://www.w3.org/2000/svg" xmlns:xlink="http://www.w3.org/1999/xlink" x="0px" y="0px"
	 viewBox="0 0 440.2 455.3" style="enable-background:new 0 0 440.2 455.3;" xml:space="preserve">
<style type="text/css">
	.st0{fill:#FFFFFF;}
</style>
<g id="Capa_2">
	<g id="Outline">
		<g id="Hamburguer">
			<path class="st0" d="M232.6,156.4c0.9,1,2.2,1.6,3.6,1.6c0.5,0,1.1-0.1,1.6-0.3c1.8-0.6,3.2-2.2,3.4-4.1
				c2-16.4,1.6-17.6,1.3-18.5c-2.1-6-8.7-9.1-14.7-7c-5.8,2.1-8.9,8.3-7.2,14.2C220.9,143.2,221.3,144.4,232.6,156.4z M227.5,136.6
				c0.5-1.1,1.5-1.9,2.6-2.3c2.3-0.7,4.7,0.4,5.6,2.6c0,1.1-0.2,4.6-1,11.4c-4.7-5-7-7.7-7.6-8.6C226.9,138.7,227,137.6,227.5,136.6
				z"/>
			<path class="st0" d="M97.5,134c0.4,0.1,0.8,0.2,1.2,0.1c1.7,0,5.6-0.5,17.2-2.6l0,0c2.7-0.5,4.5-3.2,3.9-5.9
				c-0.2-1.1-0.8-2.1-1.7-2.9c-12.7-10.5-13.9-10.8-14.9-11.1c-6.2-1.4-12.4,2.5-13.8,8.7C88.1,126.3,91.6,132.3,97.5,134z
				 M96,121.7c0.5-2,2.3-3.4,4.4-3.4c0.3,0,0.6,0,0.9,0.1c0.9,0.6,3.8,2.7,9.1,7c-6.8,1.2-10.3,1.7-11.3,1.7
				C96.7,126.4,95.4,124,96,121.7z"/>
			<path class="st0" d="M95.3,214.1c1.8,0,3.7-0.4,5.3-1.3c0.9-0.5,2-1,12-14.2c1.7-2.2,1.2-5.3-1-7c-0.9-0.7-2-1-3.2-1
				c-16.5,0.7-17.6,1.3-18.5,1.7c-5.6,2.9-7.8,9.9-4.9,15.6C87.1,211.7,91,214.1,95.3,214.1L95.3,214.1z M91,201.2
				c0.3-1.1,1-2,2-2.5c1.1-0.2,4.6-0.5,11.4-0.9c-4.2,5.4-6.5,8.1-7.3,8.9c-2.3,1-5,0-6-2.3C90.7,203.4,90.7,202.3,91,201.2z"/>
			<path class="st0" d="M344.4,220.9c2,3.8,5.9,6.2,10.2,6.2c1.8,0,3.7-0.4,5.3-1.3c0.9-0.5,2-1,12-14.2c1.7-2.2,1.2-5.3-1-7
				c-0.9-0.7-2-1-3.2-1c-16.5,0.7-17.6,1.3-18.5,1.7C343.6,208.3,341.4,215.3,344.4,220.9z M352.2,211.7c1.1-0.2,4.6-0.5,11.5-0.9
				c-4.2,5.4-6.5,8.1-7.3,8.9c-2.3,0.9-5-0.2-5.9-2.5C349.7,215.2,350.4,212.9,352.2,211.7L352.2,211.7z"/>
			<path class="st0" d="M174.6,175.4c-1.3,1.4-1.7,3.5-0.9,5.3c6.3,15.3,7.2,16.1,8,16.8c2.1,1.9,4.9,3,7.8,3h0.6
				c6.4-0.3,11.3-5.7,10.9-12.1c-0.2-3-1.5-5.9-3.7-7.9c-0.7-0.7-1.6-1.5-17.4-6.4C178,173.4,175.9,174,174.6,175.4z M192.7,185.8
				c1.7,1.8,1.7,4.6-0.1,6.4c-0.8,0.8-1.8,1.2-2.9,1.3c-1.1,0.1-2.2-0.3-3.1-1c-0.6-0.9-2.1-4.1-4.8-10.4
				C188.4,184.1,191.7,185.3,192.7,185.8z"/>
			<path class="st0" d="M168.6,117.8L168.6,117.8c2,0,3.7-1.1,4.5-2.8c7.2-14.9,7.2-16.1,7.2-17.1c0.1-6.4-5-11.6-11.4-11.7h-0.1
				c-6.3,0-11.5,5.1-11.5,11.4c0,1,0,2.2,6.8,17.3C164.9,116.7,166.6,117.8,168.6,117.8z M168.8,93.3L168.8,93.3
				c2.4,0,4.4,1.9,4.5,4.3c-0.3,1-1.7,4.3-4.6,10.5c-2.8-6.3-4.1-9.6-4.4-10.6C164.4,95.1,166.4,93.3,168.8,93.3z"/>
			<path class="st0" d="M334.6,150.8L334.6,150.8c2,0,3.7-1.1,4.5-2.8c7.2-14.9,7.2-16.1,7.2-17.1c0.1-6.4-5-11.6-11.4-11.7h-0.1
				c-6.3,0-11.4,5.1-11.5,11.4c0,1,0,2.2,6.8,17.3C330.9,149.6,332.7,150.8,334.6,150.8z M334.9,126.2c2.4,0,4.4,1.9,4.5,4.3
				c-0.3,1-1.7,4.3-4.6,10.5c-2.8-6.3-4.1-9.6-4.4-10.6C330.5,128,332.5,126.2,334.9,126.2z"/>
			<path class="st0" d="M278.2,197c1.7,0.9,3.8,0.8,5.3-0.3c13.5-9.5,14.1-10.6,14.6-11.5c3.1-5.5,1.2-12.6-4.3-15.7l0,0
				c-5.5-3.1-12.6-1.2-15.7,4.3c0,0,0,0,0,0c-0.5,0.9-1.1,1.9-2.4,18.4C275.6,194.2,276.5,196.1,278.2,197z M284.3,177.1
				c1.4-2.1,4.2-2.6,6.3-1.3c1.9,1.2,2.5,3.7,1.6,5.7c-0.8,0.8-3.6,2.9-9.1,6.9C283.6,181.6,284.1,178.1,284.3,177.1L284.3,177.1z"
				/>
			<path class="st0" d="M246.1,90.3c0.7,0.7,1.7,1.5,17.5,6.1c2.7,0.8,5.4-0.7,6.2-3.4c0.3-1.1,0.3-2.3-0.2-3.4
				c-6.6-15.2-7.5-16-8.2-16.6c-4.8-4.2-12.1-3.8-16.3,1C240.9,78.8,241.4,86.1,246.1,90.3C246.1,90.3,246.1,90.3,246.1,90.3z
				 M250.4,78.7c1.6-1.8,4.3-2,6.2-0.6c0.6,0.9,2.1,4.1,4.9,10.4c-6.6-2-9.9-3.1-10.9-3.6C248.9,83.2,248.8,80.5,250.4,78.7z"/>
			<path class="st0" d="M408.2,378.3H401c7.5-7.8,14-17.3,14-32.5c0-2.9-0.2-5.7-0.7-8.5c16.2-1.8,25.8-18.4,25.8-34.6
				c0-18.2-11.8-30.9-28.7-30.9h-6.1v-18.3c5.8-2.2,10.9-5.8,14.9-10.5c7-8.2,10-19,8.3-29.6C418,149.1,377.6,92.6,320.1,61.6
				l6.4-17.6L392,68.5c1.8,0.7,3.8-0.2,4.5-2c0.3-0.9,0.3-1.9-0.1-2.7l-10.1-21.9l21.7-10c1.8-0.8,2.5-2.9,1.7-4.6
				c-0.4-0.8-1.1-1.5-2-1.8l-69-25.2c-0.9-0.3-1.8-0.3-2.7,0.1c-0.8,0.4-1.5,1.1-1.8,2l-13.1,36l0,0l-7.3,20.1
				c-104.5-51.8-231.2-9-283,95.5c-9.3,18.8-15.8,38.9-19.2,59.5C10,224,13,234.8,20,243c4,4.7,9.1,8.3,14.8,10.6v18.2h-2.7
				c-13.4,0-22.7,4.3-27.9,12.9C0,291.7,0,299.9,0,304.9c0,18.1,9.6,29.7,25.9,32.1c-0.5,2.9-0.7,5.9-0.8,8.9
				c-0.1,12,4.3,23.6,12.4,32.5H32c-12.7,0.1-23,10.4-23,23.1v7.4c0,25.6,20.8,46.4,46.4,46.4h329.4c25.6,0,46.4-20.8,46.4-46.4
				v-7.4C431.2,388.7,420.9,378.3,408.2,378.3z M339.7,8l57.7,21l-17.2,8c-1.8,0.8-2.5,2.9-1.7,4.6c0,0,0,0,0,0l8,17.4L329,37.4
				L339.7,8z M423.2,302.7c0,10.6-6.1,17.8-11.7,17.8c-1,0-2-0.1-3-0.2c-5.9-10.6-15.2-18.9-26.5-23.5c-1-0.4-2.1-0.6-3.2-0.6l0,0
				c-19.1,0-26.5,7.7-32.3,13.9c-5.5,5.8-9.9,10.4-27,10.4c-14.9,0-24.8-3.8-34.2-8.4l22-23.2h104.2
				C421.7,288.8,423.2,297.5,423.2,302.7z M238.7,298.7L238.7,298.7l-9.7-9.9h54.9l-18.6,19.6l0,0l-0.1,0.1l0,0l-8.2,8.7
				L238.7,298.7z M51.9,256.1h336.5v15.7H51.9V256.1z M33,232c-3.7-4.4-5.4-10.2-4.5-15.9C46,110.3,145.9,38.6,251.7,56
				c19.6,3.2,38.6,9.4,56.3,18.4l-14.2,39.1c-0.7,1.8,0.3,3.8,2.1,4.5c0,0,0,0,0,0c0.4,0.1,0.8,0.2,1.2,0.2c1.5,0,2.8-0.9,3.3-2.3
				l13.9-38.2c51.8,28.9,87.7,79.8,97.4,138.3c0.9,5.7-0.7,11.5-4.4,15.9c-3.8,4.5-9.5,7.1-15.4,7.1H48.3
				C42.4,239.1,36.8,236.5,33,232z M17,304.9c0-9.3,0-16,15.1-16h173l9.7,9.9c-9.2,2.6-16,6.8-22.2,10.6c-9.6,6-17.9,11.1-35.1,11.1
				c-18,0-25.1-5.6-32.7-11.6c-7.4-5.8-15.7-12.5-31.7-12.5c-17.8,0-30,8.2-39.8,14.9c-6.3,4.3-11.8,8-17.6,9l0,0
				c-1,0.2-2.1,0.3-3.1,0.3C21.7,320.4,17,315.8,17,304.9L17,304.9z M42.1,345.9c0-3.4,0.5-6.8,1.5-10.1c7.2-2.3,13.3-6.4,19.2-10.4
				c9.1-6.1,17.7-11.9,30.3-11.9c10,0,14.7,3.7,21.1,8.8c8.6,6.8,19.3,15.3,43.3,15.3c22.1,0,33.8-7.3,44.1-13.7
				c8.1-5,15.3-9.5,27.7-10.4l21.7,22c1.6,1.6,3.7,2.5,6,2.5h0.1c2.3,0,4.5-1,6.1-2.7l9.8-10.4c11.7,6.1,25.2,12.6,46.4,12.6
				c24.4,0,32.7-8.7,39.3-15.7c4.7-4.9,7.9-8.3,18.4-8.6c7.8,3.6,14.1,9.9,17.7,17.7l0,0c2.2,4.7,3.3,9.8,3.3,15
				c0,9.6-3.9,15.3-10.5,22c-6.7,6.8-15.9,10.6-25.4,10.5h-284C57.2,378.3,42.1,364.6,42.1,345.9L42.1,345.9z M414.2,408.9
				c0,16.2-13.2,29.4-29.4,29.4H55.4c-16.3,0-29.4-13.2-29.4-29.5v-7.4c0-3.3,2.7-6,6-6.1h376.2c3.4,0,6.1,2.7,6.1,6.1l0,0
				L414.2,408.9z"/>
			<path class="st0" d="M74.9,146c-1.4-1.3-3.6-1.2-4.9,0.2c0,0,0,0-0.1,0.1c-10.7,11.8-25.9,46.3-30,68.5c-0.4,1.9,0.9,3.7,2.8,4.1
				c0.2,0,0.4,0.1,0.7,0.1c1.7,0,3.1-1.2,3.4-2.9c3.8-20.4,18.6-54.5,28.4-65.1C76.4,149.4,76.3,147.3,74.9,146z"/>
			<path class="st0" d="M142.8,424.5H56.5c-9.3,0-16.1-7.9-16.1-13.2c0-1.9-1.6-3.5-3.5-3.5s-3.5,1.6-3.5,3.5
				c0,9.4,10.1,20.2,23.1,20.2h86.2c1.9,0,3.5-1.6,3.5-3.5S144.7,424.5,142.8,424.5L142.8,424.5z"/>
		</g>
	</g>
</g>
</svg>
